{
	"asset":{
		"generator":"Khronos glTF Blender I/O v4.4.56",
		"version":"2.0"
	},
	"extensionsUsed":[
		"KHR_lights_punctual"
	],
	"extensionsRequired":[
		"KHR_lights_punctual"
	],
	"extensions":{
		"KHR_lights_punctual":{
			"lights":[
				{
					"color":[
						1,
						1,
						1
					],
					"intensity":1236.2299609184265,
					"type":"directional",
					"name":"Light.001"
				}
			]
		}
	},
	"scene":0,
	"scenes":[
		{
			"name":"Scene World",
			"nodes":[
				12
			]
		}
	],
	"nodes":[
		{
			"camera":0,
			"extras":{
				"skein_two":[
					{
						"name":"UseCameraMark",
						"selected_type_path":"case_one::plugins::camera_controller::UseCameraMark"
					}
				],
				"active_component_index":0,
				"skein":[
					{
						"case_one::plugins::camera_controller::UseCameraMark":{}
					}
				]
			},
			"name":"Camera",
			"rotation":[
				-0.20997299253940582,
				0.3857799470424652,
				0.09062844514846802,
				0.8937962055206299
			],
			"translation":[
				10.005099296569824,
				4.958309173583984,
				6.925790786743164
			]
		},
		{
			"extensions":{
				"KHR_lights_punctual":{
					"light":0
				}
			},
			"name":"Light",
			"rotation":[
				-0.3435150980949402,
				0.6674264669418335,
				0.4380650818347931,
				0.4946092963218689
			],
			"translation":[
				-1.0301547050476074,
				8.867354393005371,
				-1.0054539442062378
			]
		},
		{
			"extras":{
				"skein_two":[],
				"active_component_index":0,
				"components_meta":{},
				"skein":[]
			},
			"mesh":0,
			"name":"static_test"
		},
		{
			"extras":{
				"skein_two":[],
				"active_component_index":0,
				"skein":[]
			},
			"mesh":1,
			"name":"car"
		},
		{
			"extras":{
				"skein_two":[
					{
						"name":"CharacterSpawner",
						"selected_type_path":"case_one::plugins::character::CharacterSpawner"
					}
				],
				"active_component_index":0,
				"skein":[
					{
						"case_one::plugins::character::CharacterSpawner":{}
					}
				]
			},
			"name":"Empty",
			"translation":[
				32.83796310424805,
				4.688594341278076,
				-0.4771461486816406
			]
		},
		{
			"name":"tire2_placement",
			"translation":[
				1,
				-0.30000001192092896,
				0.5
			]
		},
		{
			"name":"tire1_placement",
			"translation":[
				1,
				-0.30000001192092896,
				-0.5
			]
		},
		{
			"name":"tire4_placement",
			"translation":[
				-1,
				-0.30000001192092896,
				-0.5
			]
		},
		{
			"name":"tire3_placement",
			"translation":[
				-1,
				-0.30000001192092896,
				0.5
			]
		},
		{
			"mesh":2,
			"name":"Cylinder",
			"rotation":[
				0.7071068286895752,
				0,
				0,
				0.7071068286895752
			],
			"scale":[
				0.17637233436107635,
				5.69675874710083,
				0.17637233436107635
			],
			"translation":[
				19.969730377197266,
				-0.5739356279373169,
				0
			]
		},
		{
			"mesh":3,
			"name":"Cylinder.001",
			"rotation":[
				0.7071068286895752,
				0,
				0,
				0.7071068286895752
			],
			"scale":[
				0.17637233436107635,
				5.69675874710083,
				0.17637233436107635
			],
			"translation":[
				20.642290115356445,
				-0.5739356279373169,
				0
			]
		},
		{
			"mesh":4,
			"name":"Cylinder.002",
			"rotation":[
				0.7071068286895752,
				0,
				0,
				0.7071068286895752
			],
			"scale":[
				0.17637233436107635,
				5.69675874710083,
				0.17637233436107635
			],
			"translation":[
				22.756052017211914,
				-0.5739356279373169,
				0
			]
		},
		{
			"children":[
				0,
				1,
				2,
				3,
				4,
				5,
				6,
				7,
				8,
				9,
				10,
				11
			],
			"name":"Scene World"
		}
	],
	"cameras":[
		{
			"name":"Camera.001",
			"perspective":{
				"aspectRatio":1.7777777777777777,
				"yfov":0.39959652046304894,
				"zfar":100,
				"znear":0.10000000149011612
			},
			"type":"perspective"
		}
	],
	"materials":[
		{
			"doubleSided":true,
			"name":"Material",
			"pbrMetallicRoughness":{
				"baseColorFactor":[
					0.6767935752868652,
					0.13545292615890503,
					0.13804441690444946,
					1
				],
				"metallicFactor":0.6296296119689941
			}
		},
		{
			"doubleSided":true,
			"name":"car_placeholder.001",
			"pbrMetallicRoughness":{
				"baseColorFactor":[
					0.0069921063259243965,
					0.16897884011268616,
					0.002411333378404379,
					1
				],
				"metallicFactor":0,
				"roughnessFactor":0.5
			}
		}
	],
	"meshes":[
		{
			"extras":{
				"skein_two":[
					{
						"name":"RigidBody",
						"selected_type_path":"avian3d::dynamics::rigid_body::RigidBody",
						"avian3d::dynamics::rigid_body::RigidBody":1
					},
					{
						"name":"ColliderConstructor",
						"selected_type_path":"avian3d::collision::collider::constructor::ColliderConstructor",
						"avian3d::collision::collider::constructor::ColliderConstructor":{
							"Sphere":{},
							"Cuboid":{},
							"RoundCuboid":{},
							"Cylinder":{},
							"Cone":{},
							"Capsule":{},
							"CapsuleEndpoints":{
								"a":{},
								"b":{}
							},
							"HalfSpace":{
								"outward_normal":{}
							},
							"Segment":{
								"a":{},
								"b":{}
							},
							"Triangle":{
								"a":{},
								"b":{},
								"c":{}
							},
							"Polyline":{
								"indices":{
									"Some":{}
								},
								"vertices":{}
							},
							"Trimesh":{
								"indices":{},
								"vertices":{}
							},
							"TrimeshWithConfig":{
								"indices":{},
								"vertices":{}
							},
							"ConvexDecomposition":{
								"indices":{},
								"vertices":{}
							},
							"ConvexDecompositionWithConfig":{
								"indices":{},
								"params":{
									"fill_mode":{
										"FloodFill":{}
									}
								},
								"vertices":{}
							},
							"ConvexHull":{
								"points":{}
							},
							"Heightfield":{
								"heights":{},
								"scale":{}
							},
							"ConvexDecompositionFromMeshWithConfig":{
								"fill_mode":{
									"FloodFill":{}
								}
							},
							"skein_enum_index":17
						}
					}
				],
				"active_component_index":0,
				"skein":[
					{
						"avian3d::dynamics::rigid_body::RigidBody":"Static"
					},
					{
						"avian3d::collision::collider::constructor::ColliderConstructor":"TrimeshFromMesh"
					}
				]
			},
			"name":"Cube.004",
			"primitives":[
				{
					"attributes":{
						"POSITION":0,
						"NORMAL":1,
						"TEXCOORD_0":2,
						"TANGENT":3
					},
					"indices":4,
					"material":0
				}
			]
		},
		{
			"extras":{
				"skein_two":[
					{
						"name":"CharacterMesh",
						"selected_type_path":"case_one::plugins::character::CharacterMesh",
						"case_one::plugins::character::CharacterMesh":{
							"ride_damper":15.0,
							"ride_height":0.5,
							"ride_strength":100.0
						}
					},
					{
						"name":"LinearVelocity",
						"selected_type_path":"avian3d::dynamics::rigid_body::LinearVelocity",
						"avian3d::dynamics::rigid_body::LinearVelocity":{
							"x":0.0,
							"y":0.0,
							"z":0.0
						}
					},
					{
						"name":"RigidBody",
						"selected_type_path":"avian3d::dynamics::rigid_body::RigidBody"
					},
					{
						"name":"ColliderConstructor",
						"selected_type_path":"avian3d::collision::collider::constructor::ColliderConstructor",
						"avian3d::collision::collider::constructor::ColliderConstructor":{
							"Sphere":{},
							"Cuboid":{},
							"RoundCuboid":{},
							"Cylinder":{},
							"Cone":{},
							"Capsule":{},
							"CapsuleEndpoints":{
								"a":{},
								"b":{}
							},
							"HalfSpace":{
								"outward_normal":{}
							},
							"Segment":{
								"a":{},
								"b":{}
							},
							"Triangle":{
								"a":{},
								"b":{},
								"c":{}
							},
							"Polyline":{
								"indices":{
									"Some":{}
								},
								"vertices":{}
							},
							"Trimesh":{
								"indices":{},
								"vertices":{}
							},
							"TrimeshWithConfig":{
								"indices":{},
								"vertices":{}
							},
							"ConvexDecomposition":{
								"indices":{},
								"vertices":{}
							},
							"ConvexDecompositionWithConfig":{
								"indices":{},
								"params":{
									"fill_mode":{
										"FloodFill":{}
									}
								},
								"vertices":{}
							},
							"ConvexHull":{
								"points":{}
							},
							"Heightfield":{
								"heights":{},
								"scale":{}
							},
							"ConvexDecompositionFromMeshWithConfig":{
								"fill_mode":{
									"FloodFill":{}
								}
							},
							"skein_enum_index":17
						},
						"bevy_transform::components::transform::Transform":{
							"translation":{
								"x":0.0,
								"y":0.0,
								"z":0.0
							},
							"scale":{
								"x":1.0
							}
						}
					},
					{
						"name":"CharacterObject",
						"selected_type_path":"case_one::plugins::character::CharacterObject",
						"bevy_transform::components::transform::Transform":{
							"translation":{
								"x":0.0,
								"z":0.0,
								"y":0.0
							},
							"scale":{
								"x":1.0
							}
						}
					},
					{
						"name":"ExternalForce",
						"selected_type_path":"avian3d::dynamics::rigid_body::forces::ExternalForce",
						"avian3d::dynamics::rigid_body::forces::ExternalForce":{
							"force":{},
							"torque":{}
						},
						"bevy_transform::components::transform::Transform":{
							"translation":{
								"z":0.0,
								"x":0.0,
								"y":0.0
							},
							"scale":{
								"x":1.0
							}
						}
					},
					{
						"name":"Friction",
						"selected_type_path":"avian3d::dynamics::rigid_body::physics_material::Friction",
						"avian3d::dynamics::rigid_body::physics_material::Friction":{
							"combine_rule":2
						},
						"bevy_transform::components::transform::Transform":{
							"translation":{
								"z":0.0,
								"x":0.0,
								"y":0.0
							}
						}
					},
					{
						"name":"Restitution",
						"selected_type_path":"avian3d::dynamics::rigid_body::physics_material::Restitution",
						"avian3d::dynamics::rigid_body::physics_material::Restitution":{
							"combine_rule":4
						}
					},
					{
						"name":"LinearDamping",
						"selected_type_path":"avian3d::dynamics::rigid_body::LinearDamping",
						"avian3d::dynamics::rigid_body::LinearDamping":1.0
					},
					{
						"name":"AngularVelocity",
						"selected_type_path":"avian3d::dynamics::rigid_body::AngularVelocity",
						"avian3d::dynamics::rigid_body::AngularVelocity":{
							"x":0.0,
							"y":0.0,
							"z":0.0
						}
					},
					{
						"name":"Mass",
						"selected_type_path":"avian3d::dynamics::rigid_body::mass_properties::components::Mass",
						"SKEIN_E96B456420F7FAB0B40CCCBD30A331F3":10.0
					}
				],
				"active_component_index":0,
				"skein":[
					{
						"case_one::plugins::character::CharacterMesh":{
							"ride_damper":15.0,
							"ride_height":0.5,
							"ride_strength":100.0
						}
					},
					{
						"avian3d::dynamics::rigid_body::LinearVelocity":[
							0.0,
							0.0,
							0.0
						]
					},
					{
						"avian3d::dynamics::rigid_body::RigidBody":"Dynamic"
					},
					{
						"avian3d::collision::collider::constructor::ColliderConstructor":"TrimeshFromMesh"
					},
					{
						"case_one::plugins::character::CharacterObject":{}
					},
					{
						"avian3d::dynamics::rigid_body::forces::ExternalForce":{
							"force":[
								0.0,
								0.0,
								0.0
							],
							"persistent":false,
							"torque":[
								0.0,
								0.0,
								0.0
							]
						}
					},
					{
						"avian3d::dynamics::rigid_body::physics_material::Friction":{
							"combine_rule":"Min",
							"dynamic_coefficient":0.0,
							"static_coefficient":0.0
						}
					},
					{
						"avian3d::dynamics::rigid_body::physics_material::Restitution":{
							"coefficient":0.0,
							"combine_rule":"Max"
						}
					},
					{
						"avian3d::dynamics::rigid_body::LinearDamping":1.0
					},
					{
						"avian3d::dynamics::rigid_body::AngularVelocity":[
							0.0,
							0.0,
							0.0
						]
					},
					{
						"avian3d::dynamics::rigid_body::mass_properties::components::Mass":10.0
					}
				]
			},
			"name":"Cube.001",
			"primitives":[
				{
					"attributes":{
						"POSITION":5,
						"NORMAL":6,
						"TEXCOORD_0":7,
						"TANGENT":8
					},
					"indices":4,
					"material":1
				}
			]
		},
		{
			"extras":{
				"skein_two":[
					{
						"name":"ColliderConstructor",
						"selected_type_path":"avian3d::collision::collider::constructor::ColliderConstructor",
						"avian3d::collision::collider::constructor::ColliderConstructor":{
							"Sphere":{},
							"Cuboid":{},
							"RoundCuboid":{},
							"Cylinder":{},
							"Cone":{},
							"Capsule":{},
							"CapsuleEndpoints":{
								"a":{},
								"b":{}
							},
							"HalfSpace":{
								"outward_normal":{}
							},
							"Segment":{
								"a":{},
								"b":{}
							},
							"Triangle":{
								"a":{},
								"b":{},
								"c":{}
							},
							"Polyline":{
								"indices":{
									"Some":{}
								},
								"vertices":{}
							},
							"Trimesh":{
								"indices":{},
								"vertices":{}
							},
							"TrimeshWithConfig":{
								"indices":{},
								"vertices":{}
							},
							"ConvexDecomposition":{
								"indices":{},
								"vertices":{}
							},
							"ConvexDecompositionWithConfig":{
								"indices":{},
								"params":{
									"fill_mode":{
										"FloodFill":{}
									}
								},
								"vertices":{}
							},
							"ConvexHull":{
								"points":{}
							},
							"Heightfield":{
								"heights":{},
								"scale":{}
							},
							"ConvexDecompositionFromMeshWithConfig":{
								"fill_mode":{
									"FloodFill":{}
								}
							},
							"skein_enum_index":17
						}
					},
					{
						"name":"RigidBody",
						"selected_type_path":"avian3d::dynamics::rigid_body::RigidBody",
						"avian3d::dynamics::rigid_body::RigidBody":1
					}
				],
				"active_component_index":1,
				"skein":[
					{
						"avian3d::collision::collider::constructor::ColliderConstructor":"TrimeshFromMesh"
					},
					{
						"avian3d::dynamics::rigid_body::RigidBody":"Static"
					}
				]
			},
			"name":"Cylinder.002",
			"primitives":[
				{
					"attributes":{
						"POSITION":9,
						"NORMAL":10,
						"TEXCOORD_0":11
					},
					"indices":12
				}
			]
		},
		{
			"extras":{
				"skein_two":[
					{
						"name":"ColliderConstructor",
						"selected_type_path":"avian3d::collision::collider::constructor::ColliderConstructor",
						"avian3d::collision::collider::constructor::ColliderConstructor":{
							"Sphere":{},
							"Cuboid":{},
							"RoundCuboid":{},
							"Cylinder":{},
							"Cone":{},
							"Capsule":{},
							"CapsuleEndpoints":{
								"a":{},
								"b":{}
							},
							"HalfSpace":{
								"outward_normal":{}
							},
							"Segment":{
								"a":{},
								"b":{}
							},
							"Triangle":{
								"a":{},
								"b":{},
								"c":{}
							},
							"Polyline":{
								"indices":{
									"Some":{}
								},
								"vertices":{}
							},
							"Trimesh":{
								"indices":{},
								"vertices":{}
							},
							"TrimeshWithConfig":{
								"indices":{},
								"vertices":{}
							},
							"ConvexDecomposition":{
								"indices":{},
								"vertices":{}
							},
							"ConvexDecompositionWithConfig":{
								"indices":{},
								"params":{
									"fill_mode":{
										"FloodFill":{}
									}
								},
								"vertices":{}
							},
							"ConvexHull":{
								"points":{}
							},
							"Heightfield":{
								"heights":{},
								"scale":{}
							},
							"ConvexDecompositionFromMeshWithConfig":{
								"fill_mode":{
									"FloodFill":{}
								}
							},
							"skein_enum_index":17
						}
					},
					{
						"name":"RigidBody",
						"selected_type_path":"avian3d::dynamics::rigid_body::RigidBody",
						"avian3d::dynamics::rigid_body::RigidBody":1
					}
				],
				"active_component_index":1,
				"skein":[
					{
						"avian3d::collision::collider::constructor::ColliderConstructor":"TrimeshFromMesh"
					},
					{
						"avian3d::dynamics::rigid_body::RigidBody":"Static"
					}
				]
			},
			"name":"Cylinder.005",
			"primitives":[
				{
					"attributes":{
						"POSITION":13,
						"NORMAL":14,
						"TEXCOORD_0":15
					},
					"indices":12
				}
			]
		},
		{
			"extras":{
				"skein_two":[
					{
						"name":"ColliderConstructor",
						"selected_type_path":"avian3d::collision::collider::constructor::ColliderConstructor",
						"avian3d::collision::collider::constructor::ColliderConstructor":{
							"Sphere":{},
							"Cuboid":{},
							"RoundCuboid":{},
							"Cylinder":{},
							"Cone":{},
							"Capsule":{},
							"CapsuleEndpoints":{
								"a":{},
								"b":{}
							},
							"HalfSpace":{
								"outward_normal":{}
							},
							"Segment":{
								"a":{},
								"b":{}
							},
							"Triangle":{
								"a":{},
								"b":{},
								"c":{}
							},
							"Polyline":{
								"indices":{
									"Some":{}
								},
								"vertices":{}
							},
							"Trimesh":{
								"indices":{},
								"vertices":{}
							},
							"TrimeshWithConfig":{
								"indices":{},
								"vertices":{}
							},
							"ConvexDecomposition":{
								"indices":{},
								"vertices":{}
							},
							"ConvexDecompositionWithConfig":{
								"indices":{},
								"params":{
									"fill_mode":{
										"FloodFill":{}
									}
								},
								"vertices":{}
							},
							"ConvexHull":{
								"points":{}
							},
							"Heightfield":{
								"heights":{},
								"scale":{}
							},
							"ConvexDecompositionFromMeshWithConfig":{
								"fill_mode":{
									"FloodFill":{}
								}
							},
							"skein_enum_index":17
						}
					},
					{
						"name":"RigidBody",
						"selected_type_path":"avian3d::dynamics::rigid_body::RigidBody",
						"avian3d::dynamics::rigid_body::RigidBody":1
					}
				],
				"active_component_index":1,
				"skein":[
					{
						"avian3d::collision::collider::constructor::ColliderConstructor":"TrimeshFromMesh"
					},
					{
						"avian3d::dynamics::rigid_body::RigidBody":"Static"
					}
				]
			},
			"name":"Cylinder.006",
			"primitives":[
				{
					"attributes":{
						"POSITION":16,
						"NORMAL":17,
						"TEXCOORD_0":18
					},
					"indices":12
				}
			]
		}
	],
	"accessors":[
		{
			"bufferView":0,
			"componentType":5126,
			"count":24,
			"max":[
				53.04253387451172,
				-0.6064052581787109,
				23.307838439941406
			],
			"min":[
				6.162845611572266,
				-1.3359618186950684,
				-23.307838439941406
			],
			"type":"VEC3"
		},
		{
			"bufferView":1,
			"componentType":5126,
			"count":24,
			"type":"VEC3"
		},
		{
			"bufferView":2,
			"componentType":5126,
			"count":24,
			"type":"VEC2"
		},
		{
			"bufferView":3,
			"componentType":5126,
			"count":24,
			"type":"VEC4"
		},
		{
			"bufferView":4,
			"componentType":5123,
			"count":36,
			"type":"SCALAR"
		},
		{
			"bufferView":5,
			"componentType":5126,
			"count":24,
			"max":[
				1.0911448001861572,
				0.318239688873291,
				0.5629820227622986
			],
			"min":[
				-1.0911452770233154,
				-0.31823956966400146,
				-0.5629820823669434
			],
			"type":"VEC3"
		},
		{
			"bufferView":6,
			"componentType":5126,
			"count":24,
			"type":"VEC3"
		},
		{
			"bufferView":7,
			"componentType":5126,
			"count":24,
			"type":"VEC2"
		},
		{
			"bufferView":8,
			"componentType":5126,
			"count":24,
			"type":"VEC4"
		},
		{
			"bufferView":9,
			"componentType":5126,
			"count":192,
			"max":[
				1,
				1,
				1
			],
			"min":[
				-1,
				-1,
				-1
			],
			"type":"VEC3"
		},
		{
			"bufferView":10,
			"componentType":5126,
			"count":192,
			"type":"VEC3"
		},
		{
			"bufferView":11,
			"componentType":5126,
			"count":192,
			"type":"VEC2"
		},
		{
			"bufferView":12,
			"componentType":5123,
			"count":372,
			"type":"SCALAR"
		},
		{
			"bufferView":13,
			"componentType":5126,
			"count":192,
			"max":[
				1,
				1,
				1
			],
			"min":[
				-1,
				-1,
				-1
			],
			"type":"VEC3"
		},
		{
			"bufferView":14,
			"componentType":5126,
			"count":192,
			"type":"VEC3"
		},
		{
			"bufferView":15,
			"componentType":5126,
			"count":192,
			"type":"VEC2"
		},
		{
			"bufferView":16,
			"componentType":5126,
			"count":192,
			"max":[
				1,
				1,
				1
			],
			"min":[
				-1,
				-1,
				-1
			],
			"type":"VEC3"
		},
		{
			"bufferView":17,
			"componentType":5126,
			"count":192,
			"type":"VEC3"
		},
		{
			"bufferView":18,
			"componentType":5126,
			"count":192,
			"type":"VEC2"
		}
	],
	"bufferViews":[
		{
			"buffer":0,
			"byteLength":288,
			"byteOffset":0,
			"target":34962
		},
		{
			"buffer":0,
			"byteLength":288,
			"byteOffset":288,
			"target":34962
		},
		{
			"buffer":0,
			"byteLength":192,
			"byteOffset":576,
			"target":34962
		},
		{
			"buffer":0,
			"byteLength":384,
			"byteOffset":768,
			"target":34962
		},
		{
			"buffer":0,
			"byteLength":72,
			"byteOffset":1152,
			"target":34963
		},
		{
			"buffer":0,
			"byteLength":288,
			"byteOffset":1224,
			"target":34962
		},
		{
			"buffer":0,
			"byteLength":288,
			"byteOffset":1512,
			"target":34962
		},
		{
			"buffer":0,
			"byteLength":192,
			"byteOffset":1800,
			"target":34962
		},
		{
			"buffer":0,
			"byteLength":384,
			"byteOffset":1992,
			"target":34962
		},
		{
			"buffer":0,
			"byteLength":2304,
			"byteOffset":2376,
			"target":34962
		},
		{
			"buffer":0,
			"byteLength":2304,
			"byteOffset":4680,
			"target":34962
		},
		{
			"buffer":0,
			"byteLength":1536,
			"byteOffset":6984,
			"target":34962
		},
		{
			"buffer":0,
			"byteLength":744,
			"byteOffset":8520,
			"target":34963
		},
		{
			"buffer":0,
			"byteLength":2304,
			"byteOffset":9264,
			"target":34962
		},
		{
			"buffer":0,
			"byteLength":2304,
			"byteOffset":11568,
			"target":34962
		},
		{
			"buffer":0,
			"byteLength":1536,
			"byteOffset":13872,
			"target":34962
		},
		{
			"buffer":0,
			"byteLength":2304,
			"byteOffset":15408,
			"target":34962
		},
		{
			"buffer":0,
			"byteLength":2304,
			"byteOffset":17712,
			"target":34962
		},
		{
			"buffer":0,
			"byteLength":1536,
			"byteOffset":20016,
			"target":34962
		}
	],
	"buffers":[
		{
			"byteLength":21552,
			"uri":"car1.bin"
		}
	]
}
