{
	"asset":{
		"generator":"Khronos glTF Blender I/O v4.2.83",
		"version":"2.0"
	},
	"extensionsUsed":[
		"KHR_lights_punctual"
	],
	"extensionsRequired":[
		"KHR_lights_punctual"
	],
	"extensions":{
		"KHR_lights_punctual":{
			"lights":[
				{
					"color":[
						1,
						1,
						1
					],
					"intensity":1236.2299609184265,
					"type":"directional",
					"name":"Light"
				}
			]
		}
	},
	"scene":0,
	"scenes":[
		{
			"name":"Scene",
			"nodes":[
				0,
				1,
				2,
				3
			]
		}
	],
	"nodes":[
		{
			"extras":{
				"skein":[
					{
						"avian3d::dynamics::rigid_body::LinearVelocity":[
							0.0,
							0.0,
							0.0
						]
					},
					{
						"bevy_transform::components::transform::Transform":{
							"rotation":[
								0.0,
								0.0,
								0.0,
								1.0
							],
							"scale":[
								1.0,
								1.0,
								1.0
							],
							"translation":[
								0.0,
								0.0,
								0.0
							]
						}
					},
					{
						"case_one::plugins::character::Character":{
							"name":""
						}
					}
				]
			},
			"mesh":0,
			"name":"Car1"
		},
		{
			"extras":{
				"skein":[]
			},
			"mesh":1,
			"name":"static_test"
		},
		{
			"camera":0,
			"extras":{
				"skein":[
					{
						"case_one::plugins::camera::UseCameraMark":{}
					}
				]
			},
			"name":"Camera",
			"rotation":[
				-0.20997299253940582,
				0.3857799470424652,
				0.09062844514846802,
				0.8937962055206299
			],
			"translation":[
				7.358891487121582,
				4.958309173583984,
				6.925790786743164
			]
		},
		{
			"extensions":{
				"KHR_lights_punctual":{
					"light":0
				}
			},
			"name":"Light",
			"rotation":[
				-0.3435150980949402,
				0.6674264669418335,
				0.4380650818347931,
				0.4946092963218689
			],
			"translation":[
				-1.0301547050476074,
				8.867354393005371,
				-1.0054539442062378
			]
		}
	],
	"cameras":[
		{
			"name":"Camera",
			"perspective":{
				"aspectRatio":1.7777777777777777,
				"yfov":0.39959652046304894,
				"zfar":100,
				"znear":0.10000000149011612
			},
			"type":"perspective"
		}
	],
	"materials":[
		{
			"doubleSided":true,
			"name":"Material",
			"pbrMetallicRoughness":{
				"baseColorFactor":[
					0.8005679845809937,
					0.15480510890483856,
					0.1952895224094391,
					1
				],
				"metallicFactor":0,
				"roughnessFactor":0.5
			}
		}
	],
	"meshes":[
		{
			"extras":{
				"skein":[
					{
						"avian3d::collision::collider::constructor::ColliderConstructor":"TrimeshFromMesh"
					},
					{
						"avian3d::dynamics::rigid_body::RigidBody":"Dynamic"
					}
				]
			},
			"name":"Cube",
			"primitives":[
				{
					"attributes":{
						"POSITION":0,
						"NORMAL":1,
						"TEXCOORD_0":2
					},
					"indices":3,
					"material":0
				}
			]
		},
		{
			"extras":{
				"skein":[
					{
						"avian3d::dynamics::rigid_body::RigidBody":"Static"
					},
					{
						"avian3d::collision::collider::constructor::ColliderConstructor":"TrimeshFromMesh"
					}
				]
			},
			"name":"Cube.001",
			"primitives":[
				{
					"attributes":{
						"POSITION":4,
						"NORMAL":5,
						"TEXCOORD_0":6
					},
					"indices":7
				}
			]
		}
	],
	"accessors":[
		{
			"bufferView":0,
			"componentType":5126,
			"count":24,
			"max":[
				4.43155574798584,
				4.335180282592773,
				0.6944596767425537
			],
			"min":[
				2.2812795639038086,
				3.3324952125549316,
				-2.485654830932617
			],
			"type":"VEC3"
		},
		{
			"bufferView":1,
			"componentType":5126,
			"count":24,
			"type":"VEC3"
		},
		{
			"bufferView":2,
			"componentType":5126,
			"count":24,
			"type":"VEC2"
		},
		{
			"bufferView":3,
			"componentType":5123,
			"count":36,
			"type":"SCALAR"
		},
		{
			"bufferView":4,
			"componentType":5126,
			"count":24,
			"max":[
				5.722126483917236,
				-0.12932297587394714,
				5.689901351928711
			],
			"min":[
				-5.722126483917236,
				-0.30742207169532776,
				-5.689901351928711
			],
			"type":"VEC3"
		},
		{
			"bufferView":5,
			"componentType":5126,
			"count":24,
			"type":"VEC3"
		},
		{
			"bufferView":6,
			"componentType":5126,
			"count":24,
			"type":"VEC2"
		},
		{
			"bufferView":7,
			"componentType":5123,
			"count":36,
			"type":"SCALAR"
		}
	],
	"bufferViews":[
		{
			"buffer":0,
			"byteLength":288,
			"byteOffset":0,
			"target":34962
		},
		{
			"buffer":0,
			"byteLength":288,
			"byteOffset":288,
			"target":34962
		},
		{
			"buffer":0,
			"byteLength":192,
			"byteOffset":576,
			"target":34962
		},
		{
			"buffer":0,
			"byteLength":72,
			"byteOffset":768,
			"target":34963
		},
		{
			"buffer":0,
			"byteLength":288,
			"byteOffset":840,
			"target":34962
		},
		{
			"buffer":0,
			"byteLength":288,
			"byteOffset":1128,
			"target":34962
		},
		{
			"buffer":0,
			"byteLength":192,
			"byteOffset":1416,
			"target":34962
		},
		{
			"buffer":0,
			"byteLength":72,
			"byteOffset":1608,
			"target":34963
		}
	],
	"buffers":[
		{
			"byteLength":1680,
			"uri":"car1.bin"
		}
	]
}
