{
	"asset":{
		"generator":"Khronos glTF Blender I/O v4.4.56",
		"version":"2.0"
	},
	"extensionsUsed":[
		"KHR_lights_punctual"
	],
	"extensionsRequired":[
		"KHR_lights_punctual"
	],
	"extensions":{
		"KHR_lights_punctual":{
			"lights":[
				{
					"color":[
						1,
						1,
						1
					],
					"intensity":1236.2299609184265,
					"type":"directional",
					"name":"Light.001"
				}
			]
		}
	},
	"scene":0,
	"scenes":[
		{
			"name":"Scene World",
			"nodes":[
				0,
				1,
				2,
				3,
				5,
				6
			]
		}
	],
	"nodes":[
		{
			"camera":0,
			"extras":{
				"skein_two":[
					{
						"name":"UseCameraMark",
						"selected_type_path":"case_one::plugins::camera_controller::UseCameraMark"
					}
				],
				"active_component_index":0,
				"skein":[
					{
						"case_one::plugins::camera_controller::UseCameraMark":{}
					}
				]
			},
			"name":"Camera",
			"rotation":[
				-0.20997299253940582,
				0.3857799470424652,
				0.09062844514846802,
				0.8937962055206299
			],
			"translation":[
				10.005099296569824,
				4.958309173583984,
				6.925790786743164
			]
		},
		{
			"extensions":{
				"KHR_lights_punctual":{
					"light":0
				}
			},
			"name":"Light",
			"rotation":[
				-0.3435150980949402,
				0.6674264669418335,
				0.4380650818347931,
				0.4946092963218689
			],
			"translation":[
				-1.0301547050476074,
				8.867354393005371,
				-1.0054539442062378
			]
		},
		{
			"extras":{
				"skein_two":[],
				"active_component_index":0,
				"components_meta":{},
				"skein":[]
			},
			"mesh":0,
			"name":"static_test",
			"translation":[
				0.037213586270809174,
				-0.502383291721344,
				0
			]
		},
		{
			"extras":{
				"skein_two":[],
				"active_component_index":0,
				"skein":[]
			},
			"mesh":1,
			"name":"Car1"
		},
		{
			"name":"Bone"
		},
		{
			"children":[
				4
			],
			"name":"Armature",
			"translation":[
				-2.2176294326782227,
				1.7894703149795532,
				0.4425281584262848
			]
		},
		{
			"extras":{
				"skein_two":[
					{
						"name":"CharacterSpawner",
						"selected_type_path":"case_one::plugins::character::CharacterSpawner"
					}
				],
				"active_component_index":0,
				"skein":[
					{
						"case_one::plugins::character::CharacterSpawner":{}
					}
				]
			},
			"name":"Empty",
			"translation":[
				3.8643038272857666,
				3.506329298019409,
				0
			]
		}
	],
	"cameras":[
		{
			"name":"Camera.001",
			"perspective":{
				"aspectRatio":1.7777777777777777,
				"yfov":0.39959652046304894,
				"zfar":100,
				"znear":0.10000000149011612
			},
			"type":"perspective"
		}
	],
	"materials":[
		{
			"doubleSided":true,
			"name":"Material.001",
			"pbrMetallicRoughness":{
				"metallicFactor":0,
				"roughnessFactor":0.5
			}
		}
	],
	"meshes":[
		{
			"extras":{
				"skein_two":[
					{
						"name":"RigidBody",
						"selected_type_path":"avian3d::dynamics::rigid_body::RigidBody",
						"avian3d::dynamics::rigid_body::RigidBody":1
					},
					{
						"name":"ColliderConstructor",
						"selected_type_path":"avian3d::collision::collider::constructor::ColliderConstructor",
						"avian3d::collision::collider::constructor::ColliderConstructor":{
							"Sphere":{},
							"Cuboid":{},
							"RoundCuboid":{},
							"Cylinder":{},
							"Cone":{},
							"Capsule":{},
							"CapsuleEndpoints":{
								"a":{},
								"b":{}
							},
							"HalfSpace":{
								"outward_normal":{}
							},
							"Segment":{
								"a":{},
								"b":{}
							},
							"Triangle":{
								"a":{},
								"b":{},
								"c":{}
							},
							"Polyline":{
								"indices":{
									"Some":{}
								},
								"vertices":{}
							},
							"Trimesh":{
								"indices":{},
								"vertices":{}
							},
							"TrimeshWithConfig":{
								"indices":{},
								"vertices":{}
							},
							"ConvexDecomposition":{
								"indices":{},
								"vertices":{}
							},
							"ConvexDecompositionWithConfig":{
								"indices":{},
								"params":{
									"fill_mode":{
										"FloodFill":{}
									}
								},
								"vertices":{}
							},
							"ConvexHull":{
								"points":{}
							},
							"Heightfield":{
								"heights":{},
								"scale":{}
							},
							"ConvexDecompositionFromMeshWithConfig":{
								"fill_mode":{
									"FloodFill":{}
								}
							},
							"skein_enum_index":17
						}
					}
				],
				"active_component_index":0,
				"skein":[
					{
						"avian3d::dynamics::rigid_body::RigidBody":"Static"
					},
					{
						"avian3d::collision::collider::constructor::ColliderConstructor":"TrimeshFromMesh"
					}
				]
			},
			"name":"Cube.004",
			"primitives":[
				{
					"attributes":{
						"POSITION":0,
						"NORMAL":1,
						"TEXCOORD_0":2,
						"TANGENT":3
					},
					"indices":4
				}
			]
		},
		{
			"extras":{
				"skein_two":[
					{
						"name":"CharacterMesh",
						"selected_type_path":"case_one::plugins::character::CharacterMesh",
						"case_one::plugins::character::CharacterMesh":{
							"ride_damper":10.0,
							"ride_height":1.5,
							"ride_strength":100.0
						}
					},
					{
						"name":"LinearVelocity",
						"selected_type_path":"avian3d::dynamics::rigid_body::LinearVelocity",
						"avian3d::dynamics::rigid_body::LinearVelocity":{
							"x":0.0,
							"y":0.0,
							"z":0.0
						}
					},
					{
						"name":"RigidBody",
						"selected_type_path":"avian3d::dynamics::rigid_body::RigidBody"
					},
					{
						"name":"ColliderConstructor",
						"selected_type_path":"avian3d::collision::collider::constructor::ColliderConstructor",
						"avian3d::collision::collider::constructor::ColliderConstructor":{
							"Sphere":{},
							"Cuboid":{},
							"RoundCuboid":{},
							"Cylinder":{},
							"Cone":{},
							"Capsule":{},
							"CapsuleEndpoints":{
								"a":{},
								"b":{}
							},
							"HalfSpace":{
								"outward_normal":{}
							},
							"Segment":{
								"a":{},
								"b":{}
							},
							"Triangle":{
								"a":{},
								"b":{},
								"c":{}
							},
							"Polyline":{
								"indices":{
									"Some":{}
								},
								"vertices":{}
							},
							"Trimesh":{
								"indices":{},
								"vertices":{}
							},
							"TrimeshWithConfig":{
								"indices":{},
								"vertices":{}
							},
							"ConvexDecomposition":{
								"indices":{},
								"vertices":{}
							},
							"ConvexDecompositionWithConfig":{
								"indices":{},
								"params":{
									"fill_mode":{
										"FloodFill":{}
									}
								},
								"vertices":{}
							},
							"ConvexHull":{
								"points":{}
							},
							"Heightfield":{
								"heights":{},
								"scale":{}
							},
							"ConvexDecompositionFromMeshWithConfig":{
								"fill_mode":{
									"FloodFill":{}
								}
							},
							"skein_enum_index":17
						},
						"bevy_transform::components::transform::Transform":{
							"translation":{
								"x":0.0,
								"y":0.0,
								"z":0.0
							},
							"scale":{
								"x":1.0
							}
						}
					},
					{
						"name":"CharacterObject",
						"selected_type_path":"case_one::plugins::character::CharacterObject",
						"bevy_transform::components::transform::Transform":{
							"translation":{
								"x":0.0,
								"z":0.0,
								"y":0.0
							},
							"scale":{
								"x":1.0
							}
						}
					},
					{
						"name":"ExternalForce",
						"selected_type_path":"avian3d::dynamics::rigid_body::forces::ExternalForce",
						"avian3d::dynamics::rigid_body::forces::ExternalForce":{
							"force":{},
							"torque":{}
						}
					},
					{
						"name":"Friction",
						"selected_type_path":"avian3d::dynamics::rigid_body::physics_material::Friction",
						"avian3d::dynamics::rigid_body::physics_material::Friction":{
							"combine_rule":2
						}
					},
					{
						"name":"Restitution",
						"selected_type_path":"avian3d::dynamics::rigid_body::physics_material::Restitution",
						"avian3d::dynamics::rigid_body::physics_material::Restitution":{
							"combine_rule":4
						}
					}
				],
				"active_component_index":0,
				"skein":[
					{
						"case_one::plugins::character::CharacterMesh":{
							"ride_damper":10.0,
							"ride_height":1.5,
							"ride_strength":100.0
						}
					},
					{
						"avian3d::dynamics::rigid_body::LinearVelocity":[
							0.0,
							0.0,
							0.0
						]
					},
					{
						"avian3d::dynamics::rigid_body::RigidBody":"Dynamic"
					},
					{
						"avian3d::collision::collider::constructor::ColliderConstructor":"TrimeshFromMesh"
					},
					{
						"case_one::plugins::character::CharacterObject":{}
					},
					{
						"avian3d::dynamics::rigid_body::forces::ExternalForce":{
							"force":[
								0.0,
								0.0,
								0.0
							],
							"persistent":false,
							"torque":[
								0.0,
								0.0,
								0.0
							]
						}
					},
					{
						"avian3d::dynamics::rigid_body::physics_material::Friction":{
							"combine_rule":"Min",
							"dynamic_coefficient":0.0,
							"static_coefficient":0.0
						}
					},
					{
						"avian3d::dynamics::rigid_body::physics_material::Restitution":{
							"coefficient":0.0,
							"combine_rule":"Max"
						}
					}
				]
			},
			"name":"Cube.001",
			"primitives":[
				{
					"attributes":{
						"POSITION":5,
						"NORMAL":6,
						"TEXCOORD_0":7,
						"TANGENT":8
					},
					"indices":4,
					"material":0
				}
			]
		}
	],
	"skins":[
		{
			"inverseBindMatrices":9,
			"joints":[
				4
			],
			"name":"Armature"
		}
	],
	"accessors":[
		{
			"bufferView":0,
			"componentType":5126,
			"count":24,
			"max":[
				10.82038688659668,
				-0.12932297587394714,
				5.689901351928711
			],
			"min":[
				-0.623866081237793,
				-0.30742207169532776,
				-5.689901351928711
			],
			"type":"VEC3"
		},
		{
			"bufferView":1,
			"componentType":5126,
			"count":24,
			"type":"VEC3"
		},
		{
			"bufferView":2,
			"componentType":5126,
			"count":24,
			"type":"VEC2"
		},
		{
			"bufferView":3,
			"componentType":5126,
			"count":24,
			"type":"VEC4"
		},
		{
			"bufferView":4,
			"componentType":5123,
			"count":36,
			"type":"SCALAR"
		},
		{
			"bufferView":5,
			"componentType":5126,
			"count":24,
			"max":[
				1.0911448001861572,
				0.318239688873291,
				0.5629820227622986
			],
			"min":[
				-1.0911452770233154,
				-0.31823956966400146,
				-0.5629820823669434
			],
			"type":"VEC3"
		},
		{
			"bufferView":6,
			"componentType":5126,
			"count":24,
			"type":"VEC3"
		},
		{
			"bufferView":7,
			"componentType":5126,
			"count":24,
			"type":"VEC2"
		},
		{
			"bufferView":8,
			"componentType":5126,
			"count":24,
			"type":"VEC4"
		},
		{
			"bufferView":9,
			"componentType":5126,
			"count":1,
			"type":"MAT4"
		}
	],
	"bufferViews":[
		{
			"buffer":0,
			"byteLength":288,
			"byteOffset":0,
			"target":34962
		},
		{
			"buffer":0,
			"byteLength":288,
			"byteOffset":288,
			"target":34962
		},
		{
			"buffer":0,
			"byteLength":192,
			"byteOffset":576,
			"target":34962
		},
		{
			"buffer":0,
			"byteLength":384,
			"byteOffset":768,
			"target":34962
		},
		{
			"buffer":0,
			"byteLength":72,
			"byteOffset":1152,
			"target":34963
		},
		{
			"buffer":0,
			"byteLength":288,
			"byteOffset":1224,
			"target":34962
		},
		{
			"buffer":0,
			"byteLength":288,
			"byteOffset":1512,
			"target":34962
		},
		{
			"buffer":0,
			"byteLength":192,
			"byteOffset":1800,
			"target":34962
		},
		{
			"buffer":0,
			"byteLength":384,
			"byteOffset":1992,
			"target":34962
		},
		{
			"buffer":0,
			"byteLength":64,
			"byteOffset":2376
		}
	],
	"buffers":[
		{
			"byteLength":2440,
			"uri":"car1.bin"
		}
	]
}
