{
	"asset":{
		"generator":"Khronos glTF Blender I/O v4.4.56",
		"version":"2.0"
	},
	"extensionsUsed":[
		"KHR_lights_punctual"
	],
	"extensionsRequired":[
		"KHR_lights_punctual"
	],
	"extensions":{
		"KHR_lights_punctual":{
			"lights":[
				{
					"color":[
						1,
						1,
						1
					],
					"intensity":1236.2299609184265,
					"type":"directional",
					"name":"Light.001"
				}
			]
		}
	},
	"scene":0,
	"scenes":[
		{
			"name":"Scene World",
			"nodes":[
				13
			]
		}
	],
	"nodes":[
		{
			"camera":0,
			"extras":{
				"skein_two":[
					{
						"name":"UseCameraMark",
						"selected_type_path":"case_one::plugins::camera_controller::UseCameraMark"
					}
				],
				"active_component_index":0,
				"skein":[
					{
						"case_one::plugins::camera_controller::UseCameraMark":{}
					}
				]
			},
			"name":"Camera",
			"rotation":[
				-0.20997299253940582,
				0.3857799470424652,
				0.09062844514846802,
				0.8937962055206299
			],
			"translation":[
				10.005099296569824,
				4.958309173583984,
				6.925790786743164
			]
		},
		{
			"extensions":{
				"KHR_lights_punctual":{
					"light":0
				}
			},
			"name":"Light",
			"rotation":[
				-0.3435150980949402,
				0.6674264669418335,
				0.4380650818347931,
				0.4946092963218689
			],
			"translation":[
				-1.0301547050476074,
				8.867354393005371,
				-1.0054539442062378
			]
		},
		{
			"extras":{
				"skein_two":[],
				"active_component_index":0,
				"components_meta":{},
				"skein":[]
			},
			"mesh":0,
			"name":"static_test"
		},
		{
			"mesh":1,
			"name":"tire1"
		},
		{
			"extras":{
				"skein_two":[],
				"active_component_index":0,
				"skein":[]
			},
			"mesh":2,
			"name":"tire2"
		},
		{
			"mesh":3,
			"name":"tire3"
		},
		{
			"mesh":4,
			"name":"tire4"
		},
		{
			"children":[
				3,
				4,
				5,
				6
			],
			"extras":{
				"skein_two":[],
				"active_component_index":0,
				"skein":[]
			},
			"mesh":5,
			"name":"car"
		},
		{
			"extras":{
				"skein_two":[
					{
						"name":"CharacterSpawner",
						"selected_type_path":"case_one::plugins::character::CharacterSpawner"
					}
				],
				"active_component_index":0,
				"skein":[
					{
						"case_one::plugins::character::CharacterSpawner":{}
					}
				]
			},
			"name":"Empty",
			"translation":[
				17.22705841064453,
				4.843234062194824,
				2.998178005218506
			]
		},
		{
			"name":"tire2_placement",
			"translation":[
				0.823592483997345,
				-0.3197523355484009,
				0.5756548047065735
			]
		},
		{
			"name":"tire1_placement",
			"translation":[
				0.823592483997345,
				-0.31975245475769043,
				-0.5756548047065735
			]
		},
		{
			"name":"tire4_placement",
			"translation":[
				-0.8516727685928345,
				-0.31975245475769043,
				-0.5756548047065735
			]
		},
		{
			"name":"tire3_placement",
			"translation":[
				-0.8516727685928345,
				-0.3197523355484009,
				0.5756548047065735
			]
		},
		{
			"children":[
				0,
				1,
				2,
				7,
				8,
				9,
				10,
				11,
				12
			],
			"name":"Scene World"
		}
	],
	"cameras":[
		{
			"name":"Camera.001",
			"perspective":{
				"aspectRatio":1.7777777777777777,
				"yfov":0.39959652046304894,
				"zfar":100,
				"znear":0.10000000149011612
			},
			"type":"perspective"
		}
	],
	"materials":[
		{
			"doubleSided":true,
			"name":"Material",
			"pbrMetallicRoughness":{
				"baseColorFactor":[
					0.6767935752868652,
					0.13545292615890503,
					0.13804441690444946,
					1
				],
				"metallicFactor":0.6296296119689941
			}
		},
		{
			"doubleSided":true,
			"name":"car_placeholder.001",
			"pbrMetallicRoughness":{
				"baseColorFactor":[
					0.0069921063259243965,
					0.16897884011268616,
					0.002411333378404379,
					1
				],
				"metallicFactor":0,
				"roughnessFactor":0.5
			}
		}
	],
	"meshes":[
		{
			"extras":{
				"skein_two":[
					{
						"name":"RigidBody",
						"selected_type_path":"avian3d::dynamics::rigid_body::RigidBody",
						"avian3d::dynamics::rigid_body::RigidBody":1
					},
					{
						"name":"ColliderConstructor",
						"selected_type_path":"avian3d::collision::collider::constructor::ColliderConstructor",
						"avian3d::collision::collider::constructor::ColliderConstructor":{
							"Sphere":{},
							"Cuboid":{},
							"RoundCuboid":{},
							"Cylinder":{},
							"Cone":{},
							"Capsule":{},
							"CapsuleEndpoints":{
								"a":{},
								"b":{}
							},
							"HalfSpace":{
								"outward_normal":{}
							},
							"Segment":{
								"a":{},
								"b":{}
							},
							"Triangle":{
								"a":{},
								"b":{},
								"c":{}
							},
							"Polyline":{
								"indices":{
									"Some":{}
								},
								"vertices":{}
							},
							"Trimesh":{
								"indices":{},
								"vertices":{}
							},
							"TrimeshWithConfig":{
								"indices":{},
								"vertices":{}
							},
							"ConvexDecomposition":{
								"indices":{},
								"vertices":{}
							},
							"ConvexDecompositionWithConfig":{
								"indices":{},
								"params":{
									"fill_mode":{
										"FloodFill":{}
									}
								},
								"vertices":{}
							},
							"ConvexHull":{
								"points":{}
							},
							"Heightfield":{
								"heights":{},
								"scale":{}
							},
							"ConvexDecompositionFromMeshWithConfig":{
								"fill_mode":{
									"FloodFill":{}
								}
							},
							"skein_enum_index":17
						}
					}
				],
				"active_component_index":0,
				"skein":[
					{
						"avian3d::dynamics::rigid_body::RigidBody":"Static"
					},
					{
						"avian3d::collision::collider::constructor::ColliderConstructor":"TrimeshFromMesh"
					}
				]
			},
			"name":"Cube.004",
			"primitives":[
				{
					"attributes":{
						"POSITION":0,
						"NORMAL":1,
						"TEXCOORD_0":2,
						"TANGENT":3
					},
					"indices":4,
					"material":0
				}
			]
		},
		{
			"extras":{
				"skein_two":[
					{
						"name":"Tire",
						"selected_type_path":"case_one::plugins::character::Tire",
						"case_one::plugins::character::Tire":{
							"relative_position":{
								"x":0.823592483997345,
								"y":-0.31975245475769043,
								"z":0.5756548047065735
							}
						}
					}
				],
				"active_component_index":0,
				"skein":[
					{
						"case_one::plugins::character::Tire":{
							"relative_position":[
								0.823592483997345,
								-0.31975245475769043,
								0.5756548047065735
							]
						}
					}
				]
			},
			"name":"Cylinder.004",
			"primitives":[
				{
					"attributes":{
						"POSITION":5,
						"NORMAL":6,
						"TEXCOORD_0":7
					},
					"indices":8
				}
			]
		},
		{
			"extras":{
				"skein_two":[
					{
						"name":"Tire",
						"selected_type_path":"case_one::plugins::character::Tire",
						"case_one::plugins::character::Tire":{
							"relative_position":{
								"x":0.823592483997345,
								"y":-0.3197523355484009,
								"z":-0.5756548047065735
							}
						}
					}
				],
				"active_component_index":0,
				"skein":[
					{
						"case_one::plugins::character::Tire":{
							"relative_position":[
								0.823592483997345,
								-0.3197523355484009,
								-0.5756548047065735
							]
						}
					}
				]
			},
			"name":"Cylinder.001",
			"primitives":[
				{
					"attributes":{
						"POSITION":9,
						"NORMAL":10,
						"TEXCOORD_0":11
					},
					"indices":8
				}
			]
		},
		{
			"extras":{
				"skein_two":[
					{
						"name":"Tire",
						"selected_type_path":"case_one::plugins::character::Tire",
						"case_one::plugins::character::Tire":{
							"relative_position":{
								"x":-0.8516727685928345,
								"y":-0.3197523355484009,
								"z":-0.5756548047065735
							}
						}
					}
				],
				"active_component_index":0,
				"skein":[
					{
						"case_one::plugins::character::Tire":{
							"relative_position":[
								-0.8516727685928345,
								-0.3197523355484009,
								-0.5756548047065735
							]
						}
					}
				]
			},
			"name":"Cylinder.003",
			"primitives":[
				{
					"attributes":{
						"POSITION":12,
						"NORMAL":13,
						"TEXCOORD_0":14
					},
					"indices":15
				}
			]
		},
		{
			"extras":{
				"skein_two":[
					{
						"name":"Tire",
						"selected_type_path":"case_one::plugins::character::Tire",
						"case_one::plugins::character::Tire":{
							"relative_position":{
								"x":-0.8516727685928345,
								"y":-0.31975245475769043,
								"z":0.5756548047065735
							}
						}
					}
				],
				"active_component_index":0,
				"skein":[
					{
						"case_one::plugins::character::Tire":{
							"relative_position":[
								-0.8516727685928345,
								-0.31975245475769043,
								0.5756548047065735
							]
						}
					}
				]
			},
			"name":"Cylinder",
			"primitives":[
				{
					"attributes":{
						"POSITION":16,
						"NORMAL":17,
						"TEXCOORD_0":18
					},
					"indices":19
				}
			]
		},
		{
			"extras":{
				"skein_two":[
					{
						"name":"CharacterMesh",
						"selected_type_path":"case_one::plugins::character::CharacterMesh",
						"case_one::plugins::character::CharacterMesh":{
							"ride_damper":10.0,
							"ride_height":1.5,
							"ride_strength":100.0
						}
					},
					{
						"name":"LinearVelocity",
						"selected_type_path":"avian3d::dynamics::rigid_body::LinearVelocity",
						"avian3d::dynamics::rigid_body::LinearVelocity":{
							"x":0.0,
							"y":0.0,
							"z":0.0
						}
					},
					{
						"name":"RigidBody",
						"selected_type_path":"avian3d::dynamics::rigid_body::RigidBody"
					},
					{
						"name":"ColliderConstructor",
						"selected_type_path":"avian3d::collision::collider::constructor::ColliderConstructor",
						"avian3d::collision::collider::constructor::ColliderConstructor":{
							"Sphere":{},
							"Cuboid":{},
							"RoundCuboid":{},
							"Cylinder":{},
							"Cone":{},
							"Capsule":{},
							"CapsuleEndpoints":{
								"a":{},
								"b":{}
							},
							"HalfSpace":{
								"outward_normal":{}
							},
							"Segment":{
								"a":{},
								"b":{}
							},
							"Triangle":{
								"a":{},
								"b":{},
								"c":{}
							},
							"Polyline":{
								"indices":{
									"Some":{}
								},
								"vertices":{}
							},
							"Trimesh":{
								"indices":{},
								"vertices":{}
							},
							"TrimeshWithConfig":{
								"indices":{},
								"vertices":{}
							},
							"ConvexDecomposition":{
								"indices":{},
								"vertices":{}
							},
							"ConvexDecompositionWithConfig":{
								"indices":{},
								"params":{
									"fill_mode":{
										"FloodFill":{}
									}
								},
								"vertices":{}
							},
							"ConvexHull":{
								"points":{}
							},
							"Heightfield":{
								"heights":{},
								"scale":{}
							},
							"ConvexDecompositionFromMeshWithConfig":{
								"fill_mode":{
									"FloodFill":{}
								}
							},
							"skein_enum_index":17
						},
						"bevy_transform::components::transform::Transform":{
							"translation":{
								"x":0.0,
								"y":0.0,
								"z":0.0
							},
							"scale":{
								"x":1.0
							}
						}
					},
					{
						"name":"CharacterObject",
						"selected_type_path":"case_one::plugins::character::CharacterObject",
						"bevy_transform::components::transform::Transform":{
							"translation":{
								"x":0.0,
								"z":0.0,
								"y":0.0
							},
							"scale":{
								"x":1.0
							}
						}
					},
					{
						"name":"ExternalForce",
						"selected_type_path":"avian3d::dynamics::rigid_body::forces::ExternalForce",
						"avian3d::dynamics::rigid_body::forces::ExternalForce":{
							"force":{},
							"torque":{}
						},
						"bevy_transform::components::transform::Transform":{
							"translation":{
								"z":0.0,
								"x":0.0,
								"y":0.0
							},
							"scale":{
								"x":1.0
							}
						}
					},
					{
						"name":"Friction",
						"selected_type_path":"avian3d::dynamics::rigid_body::physics_material::Friction",
						"avian3d::dynamics::rigid_body::physics_material::Friction":{
							"combine_rule":2
						},
						"bevy_transform::components::transform::Transform":{
							"translation":{
								"z":0.0,
								"x":0.0,
								"y":0.0
							}
						}
					},
					{
						"name":"Restitution",
						"selected_type_path":"avian3d::dynamics::rigid_body::physics_material::Restitution",
						"avian3d::dynamics::rigid_body::physics_material::Restitution":{
							"combine_rule":4
						}
					}
				],
				"active_component_index":0,
				"skein":[
					{
						"case_one::plugins::character::CharacterMesh":{
							"ride_damper":10.0,
							"ride_height":1.5,
							"ride_strength":100.0
						}
					},
					{
						"avian3d::dynamics::rigid_body::LinearVelocity":[
							0.0,
							0.0,
							0.0
						]
					},
					{
						"avian3d::dynamics::rigid_body::RigidBody":"Dynamic"
					},
					{
						"avian3d::collision::collider::constructor::ColliderConstructor":"TrimeshFromMesh"
					},
					{
						"case_one::plugins::character::CharacterObject":{}
					},
					{
						"avian3d::dynamics::rigid_body::forces::ExternalForce":{
							"force":[
								0.0,
								0.0,
								0.0
							],
							"persistent":false,
							"torque":[
								0.0,
								0.0,
								0.0
							]
						}
					},
					{
						"avian3d::dynamics::rigid_body::physics_material::Friction":{
							"combine_rule":"Min",
							"dynamic_coefficient":0.0,
							"static_coefficient":0.0
						}
					},
					{
						"avian3d::dynamics::rigid_body::physics_material::Restitution":{
							"coefficient":0.0,
							"combine_rule":"Max"
						}
					}
				]
			},
			"name":"Cube.001",
			"primitives":[
				{
					"attributes":{
						"POSITION":20,
						"NORMAL":21,
						"TEXCOORD_0":22,
						"TANGENT":23
					},
					"indices":4,
					"material":1
				}
			]
		}
	],
	"accessors":[
		{
			"bufferView":0,
			"componentType":5126,
			"count":24,
			"max":[
				53.04253387451172,
				-0.6064052581787109,
				23.307838439941406
			],
			"min":[
				6.162845611572266,
				-1.3359618186950684,
				-23.307838439941406
			],
			"type":"VEC3"
		},
		{
			"bufferView":1,
			"componentType":5126,
			"count":24,
			"type":"VEC3"
		},
		{
			"bufferView":2,
			"componentType":5126,
			"count":24,
			"type":"VEC2"
		},
		{
			"bufferView":3,
			"componentType":5126,
			"count":24,
			"type":"VEC4"
		},
		{
			"bufferView":4,
			"componentType":5123,
			"count":36,
			"type":"SCALAR"
		},
		{
			"bufferView":5,
			"componentType":5126,
			"count":192,
			"max":[
				0.17281128466129303,
				0.17281126976013184,
				0.010801553726196289
			],
			"min":[
				-0.17281125485897064,
				-0.17281126976013184,
				-0.010801553726196289
			],
			"type":"VEC3"
		},
		{
			"bufferView":6,
			"componentType":5126,
			"count":192,
			"type":"VEC3"
		},
		{
			"bufferView":7,
			"componentType":5126,
			"count":192,
			"type":"VEC2"
		},
		{
			"bufferView":8,
			"componentType":5123,
			"count":372,
			"type":"SCALAR"
		},
		{
			"bufferView":9,
			"componentType":5126,
			"count":192,
			"max":[
				0.17281115055084229,
				0.17281121015548706,
				0.01080179214477539
			],
			"min":[
				-0.1728113889694214,
				-0.1728113293647766,
				-0.010801315307617188
			],
			"type":"VEC3"
		},
		{
			"bufferView":10,
			"componentType":5126,
			"count":192,
			"type":"VEC3"
		},
		{
			"bufferView":11,
			"componentType":5126,
			"count":192,
			"type":"VEC2"
		},
		{
			"bufferView":12,
			"componentType":5126,
			"count":192,
			"max":[
				0.17281122505664825,
				0.17281126976013184,
				0.010801553726196289
			],
			"min":[
				-0.17281131446361542,
				-0.17281128466129303,
				-0.010801553726196289
			],
			"type":"VEC3"
		},
		{
			"bufferView":13,
			"componentType":5126,
			"count":192,
			"type":"VEC3"
		},
		{
			"bufferView":14,
			"componentType":5126,
			"count":192,
			"type":"VEC2"
		},
		{
			"bufferView":15,
			"componentType":5123,
			"count":372,
			"type":"SCALAR"
		},
		{
			"bufferView":16,
			"componentType":5126,
			"count":192,
			"max":[
				0.17281150817871094,
				0.17281121015548706,
				0.010801553726196289
			],
			"min":[
				-0.17281103134155273,
				-0.1728113293647766,
				-0.010801553726196289
			],
			"type":"VEC3"
		},
		{
			"bufferView":17,
			"componentType":5126,
			"count":192,
			"type":"VEC3"
		},
		{
			"bufferView":18,
			"componentType":5126,
			"count":192,
			"type":"VEC2"
		},
		{
			"bufferView":19,
			"componentType":5123,
			"count":372,
			"type":"SCALAR"
		},
		{
			"bufferView":20,
			"componentType":5126,
			"count":24,
			"max":[
				1.0911448001861572,
				0.318239688873291,
				0.5629820227622986
			],
			"min":[
				-1.0911452770233154,
				-0.31823956966400146,
				-0.5629820823669434
			],
			"type":"VEC3"
		},
		{
			"bufferView":21,
			"componentType":5126,
			"count":24,
			"type":"VEC3"
		},
		{
			"bufferView":22,
			"componentType":5126,
			"count":24,
			"type":"VEC2"
		},
		{
			"bufferView":23,
			"componentType":5126,
			"count":24,
			"type":"VEC4"
		}
	],
	"bufferViews":[
		{
			"buffer":0,
			"byteLength":288,
			"byteOffset":0,
			"target":34962
		},
		{
			"buffer":0,
			"byteLength":288,
			"byteOffset":288,
			"target":34962
		},
		{
			"buffer":0,
			"byteLength":192,
			"byteOffset":576,
			"target":34962
		},
		{
			"buffer":0,
			"byteLength":384,
			"byteOffset":768,
			"target":34962
		},
		{
			"buffer":0,
			"byteLength":72,
			"byteOffset":1152,
			"target":34963
		},
		{
			"buffer":0,
			"byteLength":2304,
			"byteOffset":1224,
			"target":34962
		},
		{
			"buffer":0,
			"byteLength":2304,
			"byteOffset":3528,
			"target":34962
		},
		{
			"buffer":0,
			"byteLength":1536,
			"byteOffset":5832,
			"target":34962
		},
		{
			"buffer":0,
			"byteLength":744,
			"byteOffset":7368,
			"target":34963
		},
		{
			"buffer":0,
			"byteLength":2304,
			"byteOffset":8112,
			"target":34962
		},
		{
			"buffer":0,
			"byteLength":2304,
			"byteOffset":10416,
			"target":34962
		},
		{
			"buffer":0,
			"byteLength":1536,
			"byteOffset":12720,
			"target":34962
		},
		{
			"buffer":0,
			"byteLength":2304,
			"byteOffset":14256,
			"target":34962
		},
		{
			"buffer":0,
			"byteLength":2304,
			"byteOffset":16560,
			"target":34962
		},
		{
			"buffer":0,
			"byteLength":1536,
			"byteOffset":18864,
			"target":34962
		},
		{
			"buffer":0,
			"byteLength":744,
			"byteOffset":20400,
			"target":34963
		},
		{
			"buffer":0,
			"byteLength":2304,
			"byteOffset":21144,
			"target":34962
		},
		{
			"buffer":0,
			"byteLength":2304,
			"byteOffset":23448,
			"target":34962
		},
		{
			"buffer":0,
			"byteLength":1536,
			"byteOffset":25752,
			"target":34962
		},
		{
			"buffer":0,
			"byteLength":744,
			"byteOffset":27288,
			"target":34963
		},
		{
			"buffer":0,
			"byteLength":288,
			"byteOffset":28032,
			"target":34962
		},
		{
			"buffer":0,
			"byteLength":288,
			"byteOffset":28320,
			"target":34962
		},
		{
			"buffer":0,
			"byteLength":192,
			"byteOffset":28608,
			"target":34962
		},
		{
			"buffer":0,
			"byteLength":384,
			"byteOffset":28800,
			"target":34962
		}
	],
	"buffers":[
		{
			"byteLength":29184,
			"uri":"car1.bin"
		}
	]
}
